/* XPM */
static char * imdbpyico_xpm[] = {
"32 32 264 2",
"  	c None",
". 	c #000000",
"+ 	c #160F00",
"@ 	c #1C1300",
"# 	c #6C6C6C",
"$ 	c #8E8E8E",
"% 	c #4A4A4A",
"& 	c #141414",
"* 	c #9B9B9B",
"= 	c #282828",
"- 	c #656565",
"; 	c #737373",
"> 	c #1B1B1B",
", 	c #222222",
"' 	c #887F6C",
") 	c #251800",
"! 	c #B1B1B1",
"~ 	c #E9E9E9",
"{ 	c #7A7A7A",
"] 	c #212121",
"^ 	c #FFFFFF",
"/ 	c #434343",
"( 	c #A6A6A6",
"_ 	c #BCBCBC",
": 	c #2C2C2C",
"< 	c #373737",
"[ 	c #555555",
"} 	c #6F6F6F",
"| 	c #3A3A3A",
"1 	c #101010",
"2 	c #202020",
"3 	c #505050",
"4 	c #5A5A5A",
"5 	c #151515",
"6 	c #0A0A0A",
"7 	c #191919",
"8 	c #171717",
"9 	c #030303",
"0 	c #4E4E4E",
"a 	c #7E7E6F",
"b 	c #383800",
"c 	c #757564",
"d 	c #3F3F0D",
"e 	c #848484",
"f 	c #161603",
"g 	c #262600",
"h 	c #141400",
"i 	c #2C2C00",
"j 	c #676700",
"k 	c #54541A",
"l 	c #C6C6C6",
"m 	c #595959",
"n 	c #DDDD17",
"o 	c #484827",
"p 	c #CECE0F",
"q 	c #A6A659",
"r 	c #2F2F13",
"s 	c #4E4E00",
"t 	c #B1B143",
"u 	c #00006F",
"v 	c #B1B12C",
"w 	c #0000FF",
"x 	c #0B0B37",
"y 	c #E8E8E8",
"z 	c #424242",
"A 	c #B1B103",
"B 	c #606005",
"C 	c #A6A602",
"D 	c #B1B10B",
"E 	c #494902",
"F 	c #5B5B00",
"G 	c #121208",
"H 	c #F9F9F9",
"I 	c #949494",
"J 	c #616148",
"K 	c #484800",
"L 	c #686800",
"M 	c #505000",
"N 	c #747400",
"O 	c #808000",
"P 	c #272700",
"Q 	c #6C6C65",
"R 	c #BABABA",
"S 	c #8F8F86",
"T 	c #616109",
"U 	c #757500",
"V 	c #718F00",
"W 	c #778900",
"X 	c #20C800",
"Y 	c #2C4B00",
"Z 	c #777700",
"` 	c #717100",
" .	c #525211",
"..	c #BDBDBA",
"+.	c #DEDEDE",
"@.	c #555500",
"#.	c #585800",
"$.	c #7D7D00",
"%.	c #758B00",
"&.	c #60A000",
"*.	c #22DE00",
"=.	c #29D700",
"-.	c #00FF00",
";.	c #00B100",
">.	c #383821",
",.	c #333C00",
"'.	c #627700",
").	c #7C8400",
"!.	c #6A7200",
"~.	c #778600",
"{.	c #47B800",
"].	c #55AB00",
"^.	c #0DE700",
"/.	c #065A00",
"(.	c #048F00",
"_.	c #03FC00",
":.	c #00A900",
"<.	c #4E5700",
"[.	c #636307",
"}.	c #006F00",
"|.	c #33CD00",
"1.	c #18E700",
"2.	c #22DD00",
"3.	c #00A800",
"4.	c #005100",
"5.	c #233900",
"6.	c #1EE100",
"7.	c #18A200",
"8.	c #009300",
"9.	c #2FD000",
"0.	c #6F6F00",
"a.	c #F5F5F5",
"b.	c #648664",
"c.	c #04CD00",
"d.	c #3AC500",
"e.	c #1BE400",
"f.	c #277400",
"g.	c #000A00",
"h.	c #005500",
"i.	c #599600",
"j.	c #00BA00",
"k.	c #001800",
"l.	c #59A700",
"m.	c #23DC00",
"n.	c #1B0000",
"o.	c #C10000",
"p.	c #860000",
"q.	c #161600",
"r.	c #155800",
"s.	c #2ED100",
"t.	c #07BA07",
"u.	c #939393",
"v.	c #788800",
"w.	c #5E5E0A",
"x.	c #494343",
"y.	c #BE0000",
"z.	c #9A6500",
"A.	c #3B6500",
"B.	c #1CB800",
"C.	c #07DE00",
"D.	c #006400",
"E.	c #829882",
"F.	c #C2C2C2",
"G.	c #1E8A1E",
"H.	c #3BC500",
"I.	c #6C9300",
"J.	c #FFE7E7",
"K.	c #ED3434",
"L.	c #8A3E00",
"M.	c #08C000",
"N.	c #1F831F",
"O.	c #566956",
"P.	c #CECECE",
"Q.	c #406B38",
"R.	c #679E0D",
"S.	c #2ECA00",
"T.	c #7A7A00",
"U.	c #53531D",
"V.	c #CFCFCD",
"W.	c #FFEEEE",
"X.	c #FF7F7F",
"Y.	c #FA2828",
"Z.	c #858585",
"`.	c #CACACA",
" +	c #97978B",
".+	c #828240",
"++	c #0FD600",
"@+	c #1AE500",
"#+	c #6D9200",
"$+	c #C5C5C5",
"%+	c #B4B4B4",
"&+	c #EEEEEE",
"*+	c #FFF9F9",
"=+	c #FFE6E6",
"-+	c #FF6565",
";+	c #B5B5B1",
">+	c #3D3D2C",
",+	c #17B706",
"'+	c #5BA400",
")+	c #728D00",
"!+	c #7B7B00",
"~+	c #393900",
"{+	c #AEAEAC",
"]+	c #EFEFEF",
"^+	c #F1F1F1",
"/+	c #1B1B13",
"(+	c #1E3B0B",
"_+	c #48B700",
":+	c #45BA00",
"<+	c #5AA500",
"[+	c #434300",
"}+	c #66664B",
"|+	c #DDDDDD",
"1+	c #6A6A51",
"2+	c #565632",
"3+	c #909090",
"4+	c #4E4E06",
"5+	c #08C303",
"6+	c #06F900",
"7+	c #17E800",
"8+	c #424200",
"9+	c #696900",
"0+	c #4F4F2E",
"a+	c #6D6D00",
"b+	c #5F5F00",
"c+	c #3B3B06",
"d+	c #DFDFDF",
"e+	c #50A500",
"f+	c #53AC00",
"g+	c #21DE00",
"h+	c #537200",
"i+	c #555917",
"j+	c #B7B7B7",
"k+	c #00F400",
"l+	c #08F700",
"m+	c #54AB00",
"n+	c #46BA00",
"o+	c #5C5C00",
"p+	c #87877B",
"q+	c #6C8B6C",
"r+	c #005900",
"s+	c #B6BAB6",
"t+	c #F8F8F8",
"u+	c #505B39",
"v+	c #598A00",
"w+	c #4AB600",
"x+	c #13ED00",
"y+	c #0DEC00",
"z+	c #06B700",
"A+	c #346A2E",
"B+	c #306E2E",
"C+	c #3D5B37",
"D+	c #939390",
"E+	c #FCFCFC",
"F+	c #FBFBFB",
"G+	c #F4F4F4",
"H+	c #E2E2E2",
"I+	c #3F7D3F",
"J+	c #1B5400",
"K+	c #19660D",
"L+	c #ECECEC",
"M+	c #0E0E0E",
"N+	c #332200",
"O+	c #412B00",
". . . . . . . . . . . . . . . . + @ . . . . . . . . . . . . . . ",
"# . $ % & * = . - ; . > * , . # ' ) , * > . ; - . = * & % $ . # ",
"! . ~ { ] ^ / . ( _ . : ^ < . ! ! . < ^ : . _ ( . / ^ ] { ~ . ! ",
"[ . } | 1 { 2 . 3 4 . 5 { > . [ [ . > { 5 . 4 3 . 2 { 1 | } . [ ",
"6 ] ] ] ] ] ] ] ] 7 . 8 . 9 ] ] ] ] ] ] ] ] ] ] ] ] ] ] ] ] ] 6 ",
"0 ^ ^ ^ ^ ^ ^ ^ ^ a b c b d _ ^ ^ ^ ^ ^ ^ ^ ^ ^ ^ ^ ^ ^ ^ ^ ^ 0 ",
"0 ^ ^ ^ ^ ^ ^ ^ e f g h i j k l ^ ^ ^ ^ ^ ^ ^ ^ ^ ^ ^ ^ ^ ^ ^ 0 ",
"0 ^ ^ ^ ^ ^ ^ ^ m n o p q r s ! ^ ^ ^ ^ ^ ^ ^ ^ ^ ^ ^ ^ ^ ^ ^ 0 ",
"0 ^ ^ ^ ^ ^ ^ ^ m t u v w x s ! ^ ^ ^ ^ ^ ^ ^ ^ ^ ^ ^ ^ ^ ^ ^ 0 ",
"0 ^ ^ ^ ^ ^ ^ y z A B C D E F G _ _ H ^ ^ ^ ^ ^ ^ ^ ^ ^ ^ ^ ^ 0 ",
"0 ^ ^ ^ ^ ^ I J K K L M K N O P K K Q R ^ ^ ^ ^ ^ ^ ^ ^ ^ ^ ^ 0 ",
"0 ^ ^ ^ H S T U O O O O O V W X Y Z `  ...^ ^ ^ ^ ^ ^ ^ ^ ^ ^ 0 ",
"0 ^ ^ ^ +.b @.O #.$.O %.&.*.=.-.;.s O O >.^ ^ ^ ^ ^ ^ ^ ^ ^ ^ 0 ",
"0 ^ ^ ^ +.,.'.).!.~.{.].^./.(._.:.<.O O [.$ ^ ^ ^ ^ ^ ^ ^ ^ ^ 0 ",
"0 ^ ^ ^ +.}._.|.|.1.2.3.4.5.6.7.8.9.).O 0.} ^ ^ ^ ^ ^ ^ ^ ^ ^ 0 ",
"0 ^ ^ ^ a.b.c.d.d.e.f.g.h.i.j.k.l.m.%.O 0.} ^ ^ ^ ^ ^ ^ ^ ^ ^ 0 ",
"0 ^ ^ ^ ^ ^ / n.o.p.q.r.s.t.u.0 e.1.v.O w.* ^ ^ ^ ^ ^ ^ ^ ^ ^ 0 ",
"0 ^ ^ ^ ^ ^ x.y.z.A.B.C.D.E.F.G.H.I.O O >.^ ^ ^ ^ ^ ^ ^ ^ ^ ^ 0 ",
"0 ^ ^ ^ ^ J.K.L.M.M.N.O.P.Q.R.S.v.O T.U.V.^ ^ ^ ^ ^ ^ ^ ^ ^ ^ 0 ",
"0 ^ ^ ^ W.X.Y.Z.Z.Z.`. +.+++@+#+O O U.$+^ ^ ^ ^ ^ ^ %+&+^ ^ ^ 0 ",
"0 ^ ^ ^ *+=+-+^ ^ ;+>+,+6.'+)+O !+~+{+]+^ ^++.~ ^ ;+/++.^ ^ ^ 0 ",
"0 ^ ^ ^ ^ ^ ^ ^ ^ (+_+:+<+O O O [+b b }+|+1+b 2+3+4+b +.^ ^ ^ 0 ",
"0 ^ ^ ^ ^ ^ ^ ^ e 5+6+7+O O O 8+9+O O 0.0+a+O N b+$.c+d+^ ^ ^ 0 ",
"0 ^ ^ ^ ^ ^ ^ ^ m e+f+g+O O O O O O O O O O b+h+f+i+j+^ ^ ^ ^ 0 ",
"0 ^ ^ ^ ^ ^ ^ ^ m k+-.l+m+O O O n+O O O O o+p+q+r+s+^ ^ ^ ^ ^ 0 ",
"0 ^ ^ ^ ^ ^ ^ ^ t+u+v+w+x+y+z+A+B+z+z+z+C+D+E+F+G+^ ^ ^ ^ ^ ^ 0 ",
"0 ^ ^ ^ ^ ^ ^ ^ ^ H+I+}.J+K+3+|+|+3+3+3+L+^ ^ ^ ^ ^ ^ ^ ^ ^ ^ 0 ",
"6 ] ] ] ] ] ] ] ] ] M+. . 9 ] ] ] ] ] ] ] ] ] ] ] ] ] ] ] ] ] 6 ",
"[ . } | 1 { 2 . 3 4 . 5 { > . [ [ . > { 5 . 4 3 . 2 { 1 | } . [ ",
"! . ~ { ] ^ / . ( _ . : ^ < . ! ! . < ^ : . _ ( . / ^ ] { ~ . ! ",
"# . $ % & * = . - ; . > * , . # # . , * > . ; - . = * & % $ . # ",
". . . . . . . . . . . . . . . . N+O+. . . . . . . . . . . . . . "};
